# xmcd
#
# Track frame offsets: 
#        150
#        10813
#        26096
#        48481
#        58828
#        76775
#        80958
#        110997
#        152866
#        174011
#        199620
#        213272
#        236368
#        256133
#        275401
#        312248
#        329046
#
# Disc length: 4449 seconds
#
# Revision: 1
# Processed by: cddbd v1.5.2PL0 Copyright (c) Steve Scherf et al.
# Submitted via: ExactAudioCopy v0.99pb4
#
DISCID=e9115f11
DTITLE=Count Basie - Basie at Birdland (2007)
DYEAR=1961
DGENRE=Jazz
TTITLE0=Little Pony (Neal Hefti)
TTITLE1=Basie (Ernie Wilkins)
TTITLE2=Blues Backstage (Frank Foster)
TTITLE3=Blee Blop Blues (A K Salim)
TTITLE4=Whirly-Bird [vocal version] (Neal Hefti)
TTITLE5=One O'Clock Jump [theme] (Count Basie)
TTITLE6=Good Times Blues (Ernie Wilkins)
TTITLE7=Segue in C (Frank Wess)
TTITLE8=One O'Clock Jump (Count Basie)
TTITLE9=Easin' It (Frank Foster) {bonus}
TTITLE10=A Little Tempo Please  (Neal Hefti) {bonus}
TTITLE11=Corner Pocket (Freddie Green) {bonus}
TTITLE12=I Needs to Be Bee'd With (Quincy Jones) {bonus}
TTITLE13=Discommotion (Frank Foster) {bonus}
TTITLE14=Segue in C [alternate take] (Frank Wess) {bonus}
TTITLE15=Whirly-Bird (Neal Hefti) {bonus}
TTITLE16=One O'Clock Jump [theme] (Count Basie) {bonus}
EXTD=YEAR: 1961
EXTT0=
EXTT1=
EXTT2=
EXTT3=
EXTT4=
EXTT5=
EXTT6=
EXTT7=
EXTT8=
EXTT9=
EXTT10=
EXTT11=
EXTT12=
EXTT13=
EXTT14=
EXTT15=
EXTT16=
PLAYORDER=
